<?xml version="1.0" encoding="utf-8"?>
<!-- Generator: Adobe Illustrator 21.0.0, SVG Export Plug-In . SVG Version: 6.00 Build 0)  -->
<svg version="1.1" id="Capa_1" xmlns="http://www.w3.org/2000/svg" xmlns:xlink="http://www.w3.org/1999/xlink" x="0px" y="0px"
	 viewBox="0 0 44.5 34.9" style="enable-background:new 0 0 44.5 34.9;" xml:space="preserve">
<style type="text/css">
	.st0{fill:#D11221;}
</style>
<g id="bJcQaz.tif_4_">
	<g>
		<path class="st0" d="M34.5,22.8c2.8-4.6,2.4-10.2,0-13.8c-0.4,0.2-0.8,0.5-1.1,0.7c2.4,4.1,2.3,8.3,0,12.4
			C33.7,22.4,34.1,22.6,34.5,22.8z M11.5,22.1c-2.3-4.1-2.4-8.3,0-12.4c-0.4-0.2-0.8-0.5-1.2-0.7c-2.6,4.1-2.7,9.6,0,13.8
			C10.7,22.6,11.1,22.4,11.5,22.1z M19.2,29.3c0.4,1.2,1.9,2.2,3.4,2.1c1.4-0.1,2.7-1.2,2.9-2.1C23.4,29.3,21.3,29.3,19.2,29.3z"/>
		<path class="st0" d="M22.7,4.7C23,4.8,23.4,5,23.8,5.2c0.5,0.4,0.7,0.9,0.7,1.5c0,0.3,0,0.7,0,0.9c0.7,0.3,1.3,0.5,1.9,0.8
			c2.1,1.2,3.2,3.1,3.6,5.4c0.1,0.6,0.1,1.2,0.1,1.8c0,1.5,0.1,2.9,0,4.4c-0.1,1.6,0.4,3,1.2,4.4c0.5,0.8,1,1.5,1.4,2.2
			c0.2,0.3,0.3,0.5,0.1,0.8c-0.2,0.3-0.4,0.4-0.7,0.4c-6.5,0-12.9,0-19.4,0c-0.3,0-0.6-0.1-0.7-0.4c-0.2-0.3-0.1-0.6,0.1-0.9
			c0.7-1.1,1.5-2.1,2-3.3c0.4-1,0.7-2,0.6-3c0-1.8,0-3.5,0-5.3c0-1.5,0.4-2.9,1.2-4.2c1-1.5,2.4-2.5,4.1-3c0.2-0.1,0.3-0.1,0.3-0.4
			c0-0.4,0-0.7,0-1.1c0.2-0.9,0.7-1.4,1.6-1.6c0.1,0,0.1,0,0.2-0.1C22.3,4.7,22.5,4.7,22.7,4.7z M21.7,7.5c0.5,0,0.9,0,1.4,0
			c0-0.3,0-0.5,0-0.7c0-0.4-0.3-0.7-0.7-0.7c-0.4,0-0.7,0.3-0.7,0.7C21.7,7,21.7,7.2,21.7,7.5z"/>
		<path class="st0" d="M4.8,14.8c0.1-0.6,0.2-1.3,0.3-1.9c0.3-2,1-3.9,2.1-5.6c0,0,0.1-0.1,0.1-0.1c0.4,0.2,0.8,0.5,1.1,0.7
			c-2.9,5.4-3,10.8,0,16.2c-0.4,0.2-0.7,0.5-1.2,0.8C6.8,23.8,6.3,23,6,22.1c-0.6-1.5-1-3.1-1.1-4.8c0-0.1,0-0.2-0.1-0.3
			C4.8,16.3,4.8,15.6,4.8,14.8z"/>
		<path class="st0" d="M40,16.6c-0.1,0.6-0.1,1.2-0.2,1.8c-0.3,2.2-1,4.3-2.2,6.2c0,0-0.1,0.1-0.1,0.1c-0.4-0.2-0.8-0.5-1.1-0.7
			c2.9-5.4,3-10.8,0-16.2c0.4-0.2,0.7-0.5,1.1-0.7c0.7,1,1.2,2.1,1.5,3.3c0.5,1.4,0.8,2.9,0.9,4.5c0,0.1,0,0.3,0.1,0.4
			C40,15.7,40,16.1,40,16.6z"/>
		<path class="st0" d="M34.5,22.8c-0.4-0.2-0.8-0.5-1.2-0.7c2.3-4.1,2.4-8.3,0-12.4c0.4-0.2,0.8-0.5,1.1-0.7
			C36.9,12.6,37.3,18.3,34.5,22.8z"/>
		<path class="st0" d="M11.5,22.1c-0.4,0.2-0.8,0.5-1.2,0.7c-2.7-4.2-2.6-9.8,0-13.8c0.4,0.2,0.8,0.5,1.2,0.7
			C9.1,13.9,9.2,18,11.5,22.1z"/>
		<path class="st0" d="M19.2,29.3c2.1,0,4.2,0,6.3,0c-0.2,0.9-1.5,2-2.9,2.1C21.1,31.5,19.6,30.5,19.2,29.3z"/>
	</g>
</g>
</svg>
