<?xml version="1.0" encoding="utf-8"?>
<!-- Generator: Adobe Illustrator 21.0.0, SVG Export Plug-In . SVG Version: 6.00 Build 0)  -->
<svg version="1.1" id="Capa_1" xmlns="http://www.w3.org/2000/svg" xmlns:xlink="http://www.w3.org/1999/xlink" x="0px" y="0px"
	 viewBox="0 0 103.8 52.5" style="enable-background:new 0 0 103.8 52.5;" xml:space="preserve">
<style type="text/css">
	.st0{fill-rule:evenodd;clip-rule:evenodd;fill:#056734;}
	.st1{fill-rule:evenodd;clip-rule:evenodd;fill:#FFFFFF;}
</style>
<path class="st0" d="M74.5,43H22c-8.8,0-16-7.2-16-16v0c0-8.8,7.2-16,16-16h52.5c8.8,0,16,7.2,16,16v0C90.5,35.9,83.3,43,74.5,43z"
	/>
<g id="G5RitN_5_">
	<g>
		<path class="st1" d="M49.2,14.5c0.6,0,1.2,0,1.8,0c0,0.8,0,1.6,0,2.4c2.5,0,5.4,0,8.1,0c0.8,0,2-0.1,2.4,0.3
			c0.3,0.2,0.3,0.8,0.3,1.1c0,6.1,0,12.2,0,18.3c-0.1,0.4,0,0.9-0.3,1.1c-0.5,0.4-1.6,0.3-2.4,0.3c-2.7,0-5.6,0-8.1,0
			c0,0.9,0,1.8,0,2.7c-0.8,0-1.5,0.1-2.2,0c-4.5-0.8-8.9-1.6-13.5-2.4c0-7.2,0-14.3,0-21.5C40,16.2,44.6,15.4,49.2,14.5z M51.1,18
			c0,0.6,0,1.2,0,1.8c0.8,0,1.7,0,2.4,0c0,0.7,0,1.5,0,2.1c-0.8,0-1.6,0-2.4,0c0,0.4,0,0.8,0,1.2c0.8,0,1.7,0,2.4,0
			c0,0.7,0,1.4,0,2.1c-0.8,0-1.6,0-2.4,0c0,0.4,0,0.8,0,1.2c0.8,0,1.7,0,2.4,0c0,0.7,0,1.5,0,2.1c-0.8,0-1.6,0-2.4,0
			c0,0.4,0,0.8,0,1.2c0.8,0,1.6,0,2.4,0c0,0.7,0,1.4,0,2.1c-0.8,0-1.6,0-2.4,0c0,0.4,0,0.8,0,1.2c0.8,0,1.6,0,2.4,0
			c0,0.7,0,1.4,0,2.1c-0.8,0-1.6,0-2.4,0c0,0.6,0,1.2,0,1.8c3.3,0,6.7,0,10,0c0-6.4,0-12.9,0-19.3C57.7,17.9,54.4,17.9,51.1,18
			C51.1,17.9,51.1,17.9,51.1,18z M44.3,22.6c-0.5,1.2-1.1,2.4-1.5,3.8c-0.4-1.2-0.9-2.4-1.3-3.6c-0.6,0.1-1.3,0.1-2,0.1
			c0,0.1,0.1,0.2,0.1,0.3c0.7,1.5,1.4,2.9,2,4.4c-0.7,1.3-1.4,2.7-2,4c-0.1,0.2-0.2,0.4-0.2,0.6c0.7,0,1.3,0.1,2,0
			c0.5-1.2,1-2.4,1.5-3.6c0.4,1.4,1,2.6,1.5,3.8c0.7,0,1.5,0.1,2.2,0.1c-0.8-1.7-1.7-3.4-2.5-5.1c0.8-1.7,1.6-3.3,2.4-5
			C45.6,22.5,45,22.6,44.3,22.6z"/>
		<path class="st1" d="M54.7,19.8c1.4,0,2.8,0,4.2,0c0,0.7,0,1.4,0,2.1c-1.4,0-2.8,0-4.2,0C54.7,21.2,54.7,20.5,54.7,19.8
			C54.7,19.8,54.7,19.8,54.7,19.8z"/>
		<path class="st1" d="M54.7,23.1c1.4,0,2.8,0,4.2,0c0,0.7,0,1.4,0,2.1c-1.4,0-2.8,0-4.2,0C54.7,24.6,54.7,23.9,54.7,23.1
			C54.7,23.2,54.7,23.1,54.7,23.1z"/>
		<path class="st1" d="M54.7,26.5c1.4,0,2.8,0,4.2,0c0,0.7,0,1.4,0,2.1c-1.4,0-2.8,0-4.2,0C54.7,27.9,54.7,27.3,54.7,26.5
			C54.7,26.5,54.7,26.5,54.7,26.5z"/>
		<path class="st1" d="M54.7,29.9c1.4,0,2.8,0,4.2,0c0,0.7,0,1.4,0,2.1c-1.4,0-2.8,0-4.2,0C54.7,31.3,54.7,30.6,54.7,29.9
			C54.7,29.9,54.7,29.9,54.7,29.9z"/>
		<path class="st1" d="M54.7,33.2c1.4,0,2.8,0,4.2,0c0,0.7,0,1.4,0,2.1c-1.4,0-2.8,0-4.2,0C54.7,34.7,54.7,34,54.7,33.2
			C54.7,33.3,54.7,33.2,54.7,33.2z"/>
	</g>
</g>
</svg>
