<?xml version="1.0" encoding="UTF-8" standalone="no"?>
<!-- Generator: Adobe Illustrator 21.0.0, SVG Export Plug-In . SVG Version: 6.00 Build 0)  -->

<svg
   xmlns:dc="http://purl.org/dc/elements/1.1/"
   xmlns:cc="http://creativecommons.org/ns#"
   xmlns:rdf="http://www.w3.org/1999/02/22-rdf-syntax-ns#"
   xmlns:svg="http://www.w3.org/2000/svg"
   xmlns="http://www.w3.org/2000/svg"
   xmlns:xlink="http://www.w3.org/1999/xlink"
   xmlns:sodipodi="http://sodipodi.sourceforge.net/DTD/sodipodi-0.dtd"
   xmlns:inkscape="http://www.inkscape.org/namespaces/inkscape"
   version="1.1"
   id="Capa_1"
   x="0px"
   y="0px"
   viewBox="0 0 36.000001 35.8"
   xml:space="preserve"
   sodipodi:docname="imagotipe.svg"
   width="36"
   height="35.799999"
   inkscape:version="0.92.2 (5c3e80d, 2017-08-06)"><metadata
     id="metadata25"><rdf:RDF><cc:Work
         rdf:about=""><dc:format>image/svg+xml</dc:format><dc:type
           rdf:resource="http://purl.org/dc/dcmitype/StillImage" /><dc:title></dc:title></cc:Work></rdf:RDF></metadata><defs
     id="defs23" /><sodipodi:namedview
     pagecolor="#ffffff"
     bordercolor="#666666"
     borderopacity="1"
     objecttolerance="10"
     gridtolerance="10"
     guidetolerance="10"
     inkscape:pageopacity="0"
     inkscape:pageshadow="2"
     inkscape:window-width="780"
     inkscape:window-height="480"
     id="namedview21"
     showgrid="false"
     fit-margin-top="0"
     fit-margin-left="0"
     fit-margin-right="0"
     fit-margin-bottom="0"
     inkscape:zoom="3.8943895"
     inkscape:cx="18.199999"
     inkscape:cy="18.500002"
     inkscape:window-x="0"
     inkscape:window-y="27"
     inkscape:window-maximized="0"
     inkscape:current-layer="Capa_1" /><style
     type="text/css"
     id="style2">
	.st0{clip-path:url(#SVGID_2_);fill:#FFFFFF;}
	.st1{clip-path:url(#SVGID_2_);fill:#005983;}
	.st2{clip-path:url(#SVGID_2_);fill:#34CDD7;}
</style><g
     id="g18"
     transform="translate(-13.6,-13)"><defs
       id="defs5"><rect
         id="SVGID_1_"
         x="0.60000002"
         y="-0.1"
         width="62"
         height="61.799999" /></defs><clipPath
       id="SVGID_2_"><use
         xlink:href="#SVGID_1_"
         style="overflow:visible"
         id="use7"
         x="0"
         y="0"
         width="100%"
         height="100%" /></clipPath><circle
       class="st0"
       cx="31.700001"
       cy="30.9"
       r="17.9"
       clip-path="url(#SVGID_2_)"
       id="circle10"
       style="fill:#ffffff" /><path
       class="st1"
       d="m 18,28.2 c 1.7,0.5 3.4,0.9 5.1,1.1 l -3.2,-8.1 h 5.5 l 3.1,7.2 c 1,-0.4 2.1,-0.8 3.2,-1.2 1.4,-0.6 2.8,-1.1 4.3,-1.6 l 1.8,-4.2 h 5.5 l -1.2,3 c 2.2,0 4.4,0.6 6.7,1.4 C 46.6,18.4 39.7,13 31.6,13 c -8.7,0 -16,6.2 -17.6,14.4 1.4,0.1 2.7,0.4 4,0.8"
       clip-path="url(#SVGID_2_)"
       id="path12"
       inkscape:connector-curvature="0"
       style="fill:#005983" /><path
       class="st2"
       d="m 41.4,26.6 c -0.1,0 -0.1,0 -0.2,0 L 35,41.9 c -0.7,1.7 -1.5,2.6 -3.4,2.6 -2,0 -2.8,-0.9 -3.4,-2.6 L 24.1,31.6 c -2.4,0 -4.6,-0.6 -6.7,-1.2 -1.3,-0.3 -2.5,-0.7 -3.7,-0.9 0,0.4 -0.1,0.9 -0.1,1.3 0,9.9 8,18 18,18 9.9,0 18,-8 18,-18 0,-0.9 -0.1,-1.7 -0.2,-2.5 -2.8,-1 -5.5,-1.9 -8,-1.7"
       clip-path="url(#SVGID_2_)"
       id="path14"
       inkscape:connector-curvature="0"
       style="fill:#34cdd7" /><path
       class="st2"
       d="m 31.6,35.5 3.1,-7.1 c -0.7,0.3 -1.4,0.6 -2.1,0.8 -1.1,0.4 -2.1,0.9 -3.1,1.2 z"
       clip-path="url(#SVGID_2_)"
       id="path16"
       inkscape:connector-curvature="0"
       style="fill:#34cdd7" /></g></svg>