<?xml version="1.0" encoding="utf-8"?>
<!-- Generator: Adobe Illustrator 21.0.0, SVG Export Plug-In . SVG Version: 6.00 Build 0)  -->
<svg version="1.1" id="Capa_1" xmlns="http://www.w3.org/2000/svg" xmlns:xlink="http://www.w3.org/1999/xlink" x="0px" y="0px"
	 viewBox="0 0 38.8 31.8" style="enable-background:new 0 0 38.8 31.8;" xml:space="preserve">
<style type="text/css">
	.st0{fill:#F39921;}
</style>
<g>
	<g id="vgmHhP.tif">
		<g>
			<path class="st0" d="M6,25.4c2.6-4.6,5.2-9.2,7.8-13.7c1.3-2.2,2.5-4.4,3.8-6.6c0.1-0.2,0.3-0.5,0.4-0.7c0.7-1,1.9-1.1,2.6-0.1
				c0.6,0.8,1.1,1.7,1.6,2.6c3.4,5.8,6.8,11.6,10.1,17.5c0.2,0.3,0.3,0.6,0.5,0.9c0,0.1,0.1,0.1,0.2,0.2c0,0.2,0,0.3,0,0.5
				c-0.1,0.5-0.4,0.8-0.8,1c-8.4,0-16.8,0-25.2,0c-0.5-0.2-0.8-0.5-1-0.9C6,25.8,6,25.6,6,25.4z M19.5,5.5
				c-0.3,0.2-11,18.7-11.3,19.6c7.5,0.1,15.1,0,22.7,0C27,18.6,23.3,12.1,19.5,5.5z"/>
			<path class="st0" d="M17.6,12.6c-0.1-1,0.5-1.6,1.1-1.9c0.8-0.3,1.5-0.2,2.2,0.4c0.4,0.4,0.5,0.9,0.5,1.5
				c-0.1,0.7-0.2,1.4-0.3,2.1c-0.2,1.5-0.4,3-0.6,4.5c0,0.2-0.1,0.4-0.2,0.6c-0.2,0.4-0.5,0.6-0.9,0.6c-0.4,0-0.7-0.3-0.8-0.7
				c-0.1-0.6-0.3-1.3-0.3-1.9c-0.2-1.6-0.4-3.1-0.6-4.7C17.6,13,17.6,12.8,17.6,12.6z"/>
			<path class="st0" d="M19.5,24c-0.7,0-1.4-0.6-1.4-1.3c0-0.7,0.6-1.4,1.3-1.4c0.7,0,1.3,0.6,1.3,1.3C20.9,23.3,20.2,24,19.5,24z"
				/>
		</g>
	</g>
</g>
</svg>
