<?xml version="1.0" encoding="utf-8"?>
<!-- Generator: Adobe Illustrator 21.0.0, SVG Export Plug-In . SVG Version: 6.00 Build 0)  -->
<svg version="1.1" id="Capa_1" xmlns="http://www.w3.org/2000/svg" xmlns:xlink="http://www.w3.org/1999/xlink" x="0px" y="0px"
	 viewBox="0 0 63.6 60.6" style="enable-background:new 0 0 63.6 60.6;" xml:space="preserve">
<style type="text/css">
	.st0{fill-rule:evenodd;clip-rule:evenodd;fill:#FFFFFF;}
</style>
<g>
	<g id="G9ywzR_1_">
		<g>
			<path class="st0" d="M25.3,16.4c-3,0-6,0-9,0c0-2.4,0.8-4.8,2.2-6c0.8-0.7,2.1-1.2,3.5-0.7C24.1,10.5,25.2,13.5,25.3,16.4z
				 M19.7,12.4c-0.2,0.7,0.3,1.3,0.7,1.4c1.7,0.4,1.9-2.2,0.3-2.1C20.2,11.8,19.8,12.1,19.7,12.4z"/>
			<path class="st0" d="M15.6,13.8c0,0.8,0.1,1.8-0.1,2.5c-1.2,0-2.6,0-3.8,0c-1.4,0-2.8-0.2-3.9,0.1c-0.9,0.2-1.7,1-2,1.8
				c-0.3,0.9-0.1,2.9-0.1,4.2c0,8.7,0,17,0,25.7c0,1.5-0.2,3.2,0.1,4.2c0.2,0.7,0.9,1.5,1.7,1.7c0.8,0.3,2,0.2,3.2,0.2
				c6.6,0,13.1,0,19.8,0c2.4,0,4.1,0,4.7-1.8c0.3-0.9,0.1-2.2,0.1-3.4c0-2.9,0-5.3,0-8.4c0-0.6-0.1-1.2,0-1.7
				c0.1-0.6,0.9-1.2,1.3-1.7c0.5-0.6,0.8-1.1,1.3-1.5c0,4.4,0,8,0,12.3c0,1.3,0.1,2.7,0,4c-0.3,2.3-2.3,4.3-4.6,4.6
				c-1,0.1-2.2,0-3.2,0c-6.3,0-12.7,0-19.1,0c-1.1,0-2.1,0.1-3.2,0c-2.2-0.3-4.4-2.2-4.6-4.6c-0.1-1.3,0-2.8,0-4.2
				c0-8.4,0-16.9,0-25.3c0-1.5-0.1-2.9,0-4.2C3.6,16,5.7,14,8.1,13.8C10.6,13.5,13,14,15.6,13.8z"/>
			<path class="st0" d="M26,13.8c2.4,0.1,5-0.2,7.3,0c2.2,0.2,3.8,1.5,4.5,3.2c0.3,0.6,0.5,1.4,0.4,2.1c-0.1,0.5-0.8,1.2-1.2,1.6
				c-0.5,0.6-0.8,1.1-1.3,1.4c0.1-2.8,0.2-4.9-1.7-5.7c-0.9-0.4-2.8-0.2-4.3-0.2c-1.3,0-2.5,0-3.7,0C26,15.5,25.8,14.5,26,13.8z"/>
			<path class="st0" d="M28.6,20.3c-5.2,0-10.5,0-15.7,0c0.5-1.1,1.7-2.3,2.8-3c0.4-0.2,1.7-0.1,2.6-0.1c1.6,0,3.2,0,4.9,0
				c0.8,0,1.8-0.1,2.4,0c0.5,0.1,1.4,0.9,1.8,1.3C28,19.2,28.5,19.8,28.6,20.3z"/>
			<path class="st0" d="M46,22c-3.7,4.7-7.6,9.2-11.3,13.9c-2.4-2.2-5.1-4.7-7.7-7.1c-0.5-0.4-0.7-0.3-0.2-0.9
				c0.8-0.9,1.8-1.9,2.6-2.8c1.6,1.4,3.1,2.9,4.7,4.3c2.8-3.3,5.5-6.8,8.4-10.1C43.8,20.2,44.8,21.1,46,22z"/>
			<path class="st0" d="M10.1,24.3c4.2,0,8.5,0,12.7,0c0,0.4,0,0.7,0,1.1c-4.3,0-8.5,0-12.8,0C10.1,25.1,9.9,24.6,10.1,24.3z"/>
			<path class="st0" d="M10.1,27.9c4.2,0,8.5,0,12.7,0c0,0.4,0,0.7,0,1.1c-4.3,0-8.5,0-12.8,0C10.1,28.6,9.9,28.1,10.1,27.9z"/>
			<path class="st0" d="M10.1,31.5c4.2,0,8.5,0,12.7,0c0,0.4,0,0.7,0,1.1c-4.3,0-8.5,0-12.8,0C10.1,32.2,9.9,31.7,10.1,31.5z"/>
			<path class="st0" d="M10.1,35.1c4.2,0,8.5,0,12.7,0c0,0.4,0,0.7,0,1.1c-4.3,0-8.5,0-12.8,0C10.1,35.8,9.9,35.3,10.1,35.1z"/>
			<path class="st0" d="M10.1,38.6c7.1,0,14.4-0.1,21.4,0.1c0,0.5-0.1,0.6,0,1c-7.1,0.1-14.4,0-21.5,0.1c0-0.3,0-0.6,0-0.9
				C10,38.7,10,38.6,10.1,38.6z"/>
			<path class="st0" d="M10.1,42.2c7.1,0,14.3,0,21.4,0c0,0.3,0,0.6,0,1c-7.1,0.1-14.4,0-21.5,0.1c0-0.3,0-0.6,0-0.9
				C10,42.3,10,42.2,10.1,42.2z"/>
			<path class="st0" d="M10.1,45.8c7.1,0,14.3,0,21.4,0c-0.1,0.3,0,0.6,0,1c-7.1,0.1-14.4,0-21.5,0.1c0-0.3,0-0.6,0-0.9
				C10,45.9,10,45.8,10.1,45.8z"/>
			<path class="st0" d="M10.1,49.4c7.1,0,14.3,0,21.4,0c-0.2,0.3,0,0.7,0,1c-7.1,0.1-14.4,0-21.5,0.1c0-0.3,0-0.6,0-0.9
				C10,49.5,10,49.4,10.1,49.4z"/>
		</g>
	</g>
	<g>
		<g>
			<path class="st0" d="M44.2,4c0.3,0,0.6,0.1,0.9,0.1c5.4,1.2,9.1,4,11.6,7.4c2.5,3.4,4,7.7,3.6,13.3c0,0.3-0.1,0.6-0.1,0.8
				c-0.8-0.1-1.6-0.2-2.3-0.4C58.5,20,57,16,54.7,12.9C52.4,9.8,49,7.2,43.9,6.3C44,5.5,44.1,4.7,44.2,4z"/>
			<path class="st0" d="M43.2,11c3.7,0.6,6.1,2.5,7.8,4.7c1.6,2.2,2.6,5.1,2.2,8.8c-0.8-0.1-1.6-0.2-2.4-0.4c0.4-3-0.4-5.3-1.7-7.1
				c-1.3-1.8-3.3-3.2-6.2-3.8C42.9,12.6,43,11.9,43.2,11C43.1,11.1,43.1,11,43.2,11z"/>
		</g>
	</g>
</g>
</svg>
