<?xml version="1.0" encoding="utf-8"?>
<!-- Generator: Adobe Illustrator 21.0.0, SVG Export Plug-In . SVG Version: 6.00 Build 0)  -->
<svg version="1.1" id="Capa_1" xmlns="http://www.w3.org/2000/svg" xmlns:xlink="http://www.w3.org/1999/xlink" x="0px" y="0px"
	 viewBox="0 0 63.6 60.6" style="enable-background:new 0 0 63.6 60.6;" xml:space="preserve">
<style type="text/css">
	.st0{fill-rule:evenodd;clip-rule:evenodd;fill:#005983;}
</style>
<g>
	<path class="st0" d="M5.4,42.2c0,0.8,0.4,2,0.7,2.9c0.9,0,1.3-0.4,2.3-0.4c0.4,0.8,0.9,1.5,1.2,2.5C9.3,47.7,8.5,48,8,48.6
		c0.6,0.9,1.1,1.9,2,2.4c0.6-0.4,1-0.9,1.7-1.2c0.7,0.6,1.6,1.1,2.1,1.9c-0.2,0.7-0.7,1.2-0.9,1.9c0.8,0.5,1.6,1.1,2.7,1.4
		c0.6-0.4,0.6-1.5,1.3-1.8c0.8,0.3,1.8,0.5,2.5,0.9c0.2,0.9-0.2,1.3-0.1,2.2c0.9,0.3,1.9,0.4,3,0.4c0.3-0.6,0-1.8,0.6-2.2
		c0.9-0.1,1.8-0.1,2.7-0.2c0.4,0.6,0.4,1.6,0.8,2.1c1.1-0.2,2-0.5,2.9-0.8c0-0.9-0.6-1.6-0.4-2.3c0.9-0.3,1.5-0.9,2.5-1.2
		c0.7,0.3,0.8,1.3,1.6,1.6c0.8-0.6,1.7-1,2.2-1.9c-0.2-0.8-0.9-1-1.1-1.7c0.5-0.8,1-1.6,1.9-2.1c0.8,0.1,1.1,0.8,1.9,0.8
		c0.6-0.7,1.1-1.5,1.4-2.6c-0.4-0.7-1.5-0.6-1.8-1.4c0.4-0.8,0.4-1.9,1-2.5c0.7,0,1.6,0.3,2.1,0.1c0.3-0.8,0.3-1.9,0.4-2.8
		c-0.5-0.4-1.7-0.1-2.2-0.6c-0.1-0.6-0.2-2.2-0.2-2.8c0.7-0.3,1.7-0.3,2.1-0.8c-0.3-1-0.4-2.2-1-2.9c-0.7,0.1-1.5,0.6-2.2,0.4
		c-0.4-0.7-0.7-1.5-1.1-2.1c-1.1,0.9-1.9,2.1-2.8,3.2c3.5,7.7-1.7,15.9-9.5,16.5c-6.1,0.5-11.4-3.7-12.4-9.6
		c-1.3-8,5.7-15.4,14.4-13.1c1.1-1,2-2,2.8-3.3c-0.7-0.4-1.8-0.4-2.4-0.9c-0.1-0.8,0.2-1.3,0.2-2.1c-0.8-0.4-2-0.3-3-0.5
		c-0.5,0.6-0.1,1.9-0.7,2.4c-0.8,0.1-1.7,0.1-2.5,0.2c-0.5-0.5-0.5-1.5-0.8-2.1c-0.8,0-2.2,0.4-3,0.8c0.1,0.8,0.4,1.3,0.5,2.2
		c-0.8,0.4-1.7,0.8-2.5,1.3c-0.8-0.3-0.9-1.4-1.7-1.7c-0.7,0.7-1.8,1-2.2,2c0.2,0.7,0.9,0.9,1.1,1.7c-0.5,0.8-1,1.6-1.9,2.1
		c-0.6-0.3-1.1-0.7-1.8-1c-0.6,0.8-1.2,1.6-1.5,2.7c0.5,0.6,1.5,0.6,1.8,1.3c-0.3,0.9-0.4,2-1,2.6c-0.6-0.1-1.3-0.3-2.1-0.2
		c-0.2,0.9-0.3,2-0.4,3c0.7,0.4,2,0,2.4,0.7c0,0.9,0.3,2,0.1,2.7C6.8,41.7,6,41.9,5.4,42.2z M17.4,40.6c1.2-0.3,2.1-3.5,3.7-3.6
		c0.6,0,1.6,0.8,2,1.2c0.5,0.4,1.4,1,1.4,2c0,1.7-2.7,2.7-3,4.1c4.9,0.6,8.2-3.1,6.7-7.9c2.3-2.8,4.6-5.7,7.1-8.3
		c4.9,0.6,8-3.2,6.6-7.8c-1.3,0.5-2.1,3.4-3.6,3.6c-0.8,0.1-1.7-0.6-2.2-1c-0.6-0.5-1.4-1.1-1.4-2.1c0-1,1.7-2.4,2.3-3.1
		c0.2-0.3,0.8-0.8,0.4-0.9c-4.8-0.7-7.9,3.1-6.4,7.8c-2.3,2.8-4.6,5.7-7.1,8.3C19.1,32.2,16,36,17.4,40.6z"/>
	<g>
		<g>
			<path class="st0" d="M38.3,5.1c0.2,0,0.5,0,0.7,0c4.6,0.6,7.8,2.6,10.2,5.2c2.3,2.6,4,6.1,4,10.7c0,0.2,0,0.5,0,0.7
				c-0.7,0-1.3-0.1-2-0.1c0.1-4.4-1.4-7.6-3.5-10c-2.2-2.4-5.2-4.2-9.5-4.6C38.2,6.4,38.2,5.8,38.3,5.1z"/>
			<path class="st0" d="M38,11c3.1,0.2,5.3,1.6,6.8,3.3c1.5,1.7,2.6,4,2.5,7.1c-0.7,0-1.3-0.1-2-0.1c0.1-2.5-0.8-4.3-2-5.7
				c-1.2-1.4-3-2.4-5.4-2.6C37.9,12.4,37.9,11.8,38,11C37.9,11.1,38,11,38,11z"/>
		</g>
	</g>
</g>
</svg>
